<svg xmlns="http://www.w3.org/2000/svg" xmlns:svg="http://www.w3.org/2000/svg" xmlns:xlink="http://www.w3.org/1999/xlink" id="svg8" x="0" y="0" version="1.1" viewBox="0 0 554.3 126.8" xml:space="preserve" style="enable-background:new 0 0 554.3 126.8"><style type="text/css">.st0{fill:#fff}.st1{fill:#b7b7b7}</style><rect id="rect825-1" width=".5" height="94" x="353.3" y="15.6" class="st0"/><g id="text825" transform="rotate(-30)"><path id="path873" d="M279.6,249.8c0.7,0.1,1,0.5,0.9,1c-0.1,0.4-0.5,0.7-1.1,0.8c-1.2,0.2-1.9,0.8-2.1,1.9 c-0.1,0.8,0.1,1.5,0.6,2.1c0.5,0.5,1.2,0.8,2,1c1.7,0.3,3.3,0.1,4.8-0.7c0.9-0.5,1.5-1.2,1.6-2.2c0.1-0.6,0.1-1.2-0.1-1.7 c-0.2-0.5-0.4-1.2-0.8-2.1c-0.6-1.3-1.1-2.5-1.4-3.5c-0.4-1.2-0.5-2.3-0.4-3.3c0.4-2.4,2-4.5,4.8-6.2c1.5-0.9,3-1.5,4.7-2 c1.4-0.3,2.7-0.4,3.8-0.2c0.8,0.1,1.4,0.4,1.9,0.9c0.6,0.6,0.8,1.3,0.6,2.1c-0.2,1.3-1.2,2.6-2.8,3.9c-1.6,1.2-3.3,2.1-5.3,2.7 c-1,0.3-1.7,0.4-2.1,0.3c-0.3-0.1-0.5-0.2-0.7-0.5c-0.1-0.2-0.2-0.4-0.1-0.6c0.1-0.5,0.6-0.8,1.5-1c1.7-0.3,3.2-0.8,4.6-1.6 c1.8-1,2.8-2,2.9-3c0.1-0.4,0-0.7-0.3-1c-0.2-0.2-0.5-0.4-0.8-0.4c-0.9-0.2-2.1,0-3.6,0.5c-2,0.6-3.6,1.6-4.9,2.8 c-1.1,1.1-1.8,2.3-2,3.5c-0.2,0.9-0.1,1.8,0.3,2.8c0.3,0.8,0.6,1.7,1.1,2.8c0.4,1,0.8,1.9,1.1,2.8c0.3,1,0.4,1.9,0.3,2.7 c-0.3,1.5-1.4,2.8-3.3,3.6c-1.7,0.7-3.5,0.9-5.3,0.6c-1.9-0.3-3.2-1.1-4.1-2.3c-0.7-0.9-0.9-1.9-0.7-2.9c0.2-1.1,0.7-2,1.6-2.7 c0.5-0.4,1.1-0.7,1.8-0.8C279,249.8,279.3,249.8,279.6,249.8L279.6,249.8z" class="st1"/><path id="path875" d="M297.2,248.6c0.2,0,0.4,0.2,0.5,0.3c0.1,0.2,0.1,0.3,0.1,0.5c0,0.2-0.3,0.6-0.8,1.1 c-1.7,1.9-3,3.4-3.8,4.7c-0.9,1.3-1.6,2.6-2.4,4c-0.3,0.6-0.7,0.9-1.1,0.8c-0.3,0-0.5-0.2-0.6-0.4c-0.1-0.2-0.2-0.4-0.1-0.6 c0.1-0.4,0.7-1.6,1.9-3.7c1-1.6,2.3-3.4,4.2-5.2c0.6-0.6,1-1,1.3-1.2C296.6,248.6,296.9,248.5,297.2,248.6L297.2,248.6z M302.1,241.9c0.6,0.1,0.8,0.5,0.7,1.1c-0.1,0.5-0.5,1.1-1.2,1.7c-0.7,0.5-1.2,0.8-1.7,0.7c-0.2,0-0.4-0.2-0.6-0.4 c-0.1-0.2-0.2-0.4-0.1-0.7c0.1-0.6,0.6-1.2,1.4-1.8C301.2,242.1,301.7,241.9,302.1,241.9L302.1,241.9z" class="st1"/><path id="path877" d="M300.1,254.2c0.2-0.1,0.4-0.3,0.6-0.4c3.2-2.2,5.2-3.2,6.2-3c0.5,0.1,0.7,0.4,0.6,1 c-0.1,0.4-0.4,0.8-0.9,1.3c-3,2.5-4.7,4.8-5.1,7c-0.1,0.7,0,1.4,0.2,2.2c0.1,0.3,0.2,0.6,0.2,0.8c0,0.2-0.1,0.3-0.3,0.4 c-0.2,0.2-0.4,0.2-0.7,0.2c-0.5-0.1-0.9-0.5-1.2-1.2c-0.2-0.7-0.3-1.5-0.1-2.4c0.3-1.8,1.3-3.6,3-5.5c-2,0.8-4,2.6-6,5.2 c-0.5,0.6-1,0.9-1.4,0.8c-0.2,0-0.4-0.1-0.5-0.3c-0.2-0.2-0.2-0.5-0.2-0.8c0.1-0.7,1.2-2.4,3.4-5.1c1.1-1.5,2-2.5,2.6-3.2 c0.6-0.6,1.1-0.9,1.5-0.9c0.2,0,0.3,0.1,0.4,0.3c0.2,0.2,0.2,0.4,0.2,0.7c0,0.3-0.3,0.7-0.8,1.1C301.1,253,300.6,253.6,300.1,254.2 L300.1,254.2z" class="st1"/><path id="path879" d="M314.8,251.2c1,0.2,1.5,0.8,1.3,1.9c-0.2,1-0.7,1.8-1.6,2.7c-0.7,0.6-1.3,0.9-1.7,0.8 c-0.4-0.1-0.5-0.3-0.4-0.7c0-0.2,0.1-0.4,0.2-0.5c0,0,0.2-0.2,0.5-0.4c0.3-0.2,0.6-0.5,0.9-0.9c0.2-0.3,0.3-0.5,0.4-0.7 c0-0.2-0.1-0.3-0.3-0.4c-0.3,0-0.7,0.1-1.4,0.4c-1,0.5-2.1,1.5-3.2,2.8c-1.2,1.4-1.8,2.5-2,3.4c0,0.3,0,0.6,0.1,0.8 c0.2,0.4,0.5,0.6,0.9,0.7c0.8,0.1,1.9-0.2,3.2-1c1.1-0.7,2.1-1.4,2.9-2.2c0.4-0.4,0.8-0.6,1-0.6c0.1,0,0.3,0.1,0.4,0.3 c0.1,0.1,0.1,0.3,0.1,0.4c-0.1,0.5-0.9,1.3-2.3,2.5c-2.3,1.9-4.3,2.6-5.9,2.4c-1-0.2-1.6-0.6-2-1.4c-0.3-0.6-0.4-1.2-0.2-1.9 c0.2-1.4,1.1-2.8,2.5-4.4c1.4-1.5,2.9-2.7,4.5-3.5C313.4,251.2,314.2,251.1,314.8,251.2L314.8,251.2z" class="st1"/><path id="path881" d="M318.8,260.5l-0.1,0.4c0,0.3,0,0.5,0.1,0.8c0.2,0.5,0.7,0.9,1.5,1c1.6,0.3,3.7-0.6,6.3-2.8 c0.5-0.4,0.8-0.5,1.1-0.5c0.1,0,0.3,0.1,0.4,0.3c0.1,0.1,0.1,0.2,0.1,0.3c-0.1,0.5-0.9,1.3-2.3,2.3c-1.1,0.8-2.3,1.4-3.5,1.8 c-1.2,0.4-2.3,0.5-3.2,0.4c-1-0.2-1.7-0.6-2.1-1.4c-0.3-0.5-0.4-1.2-0.2-2c0.4-2.2,1.8-4.2,4.2-5.9c2-1.4,3.6-2,4.8-1.8 c0.3,0.1,0.6,0.2,0.9,0.5c0.3,0.3,0.4,0.7,0.3,1.2c-0.1,0.7-0.6,1.5-1.4,2.4C323.8,259,321.6,260.1,318.8,260.5L318.8,260.5z M319.5,259c1-0.2,1.7-0.4,2.3-0.7c1-0.5,1.9-1.2,2.6-2c0.2-0.3,0.4-0.5,0.4-0.8c0-0.3-0.1-0.4-0.3-0.5c-0.3-0.1-0.9,0.1-1.6,0.5 C321.7,256.3,320.5,257.4,319.5,259L319.5,259z" class="st1"/><path id="path883" d="M339.3,266.3c2.3-0.3,4.4-0.3,6.2,0c0.7,0.1,1.3,0.4,1.7,0.7c0.3,0.3,0.5,0.7,0.4,1.1 c0,0.2-0.2,0.5-0.4,0.6s-0.4,0.2-0.7,0.2c-0.1,0-0.2-0.1-0.3-0.1c-0.6-0.3-1.2-0.5-1.8-0.6c-0.5-0.1-1.1-0.1-1.8-0.2 c-0.3,0-1.2,0.1-2.8,0.2c-1.5,0.1-2.3,0.2-2.6,0.1c-0.4-0.1-0.7-0.3-0.9-0.7c-0.2-0.4-0.3-0.7-0.2-1.1c0.1-0.4,0.5-0.9,1.3-1.4 c1.5-1,2.9-1.9,4.3-2.7c1.3-0.7,2.9-1.6,4.7-2.5c2.1-1.1,3.6-1.9,4.4-2.4c1.2-0.8,1.9-1.6,2.1-2.5c0.1-0.5,0-1-0.3-1.3 c-0.3-0.3-0.6-0.5-1.1-0.6c-1.2-0.2-2.7,0.2-4.5,1.3c-0.8,0.5-1.3,0.7-1.5,0.7c-0.1,0-0.3-0.1-0.4-0.3c-0.2-0.2-0.2-0.4-0.2-0.6 c0.1-0.5,0.8-1,2-1.7c2.1-1.1,3.9-1.5,5.6-1.2c1,0.2,1.7,0.6,2.2,1.3c0.5,0.7,0.7,1.5,0.6,2.3c-0.3,1.5-1.2,2.8-3,4 c-0.7,0.5-2.1,1.3-4,2.2C343.7,263.3,340.7,265.1,339.3,266.3L339.3,266.3z" class="st1"/><path id="path885" d="M366.7,254.6c0.7,0.4,1.1,0.9,1.3,1.6c0.2,0.7,0.3,1.5,0.1,2.4c-0.5,2.9-2.2,5.8-5,8.7 c-3.1,3.1-5.7,4.5-8,4.1c-1.1-0.2-1.9-0.9-2.2-2.2c-0.2-0.8-0.3-1.8-0.1-2.8c0.4-2.6,1.9-5.1,4.2-7.7c1.2-1.3,2.8-2.6,4.8-3.9 c2-1.3,3.4-1.9,4.2-1.8C366.6,253.2,366.8,253.7,366.7,254.6L366.7,254.6z M363.9,255.6c-1.7,1-3.4,2.3-4.8,3.9 c-2.1,2.3-3.4,4.6-3.8,7.1c-0.1,0.7-0.1,1.3,0,1.7c0.2,0.7,0.6,1.1,1.2,1.2c0.9,0.2,2.1-0.4,3.6-1.5c1.7-1.3,3.1-3,4.3-5.1 c0.9-1.6,1.5-2.9,1.7-4.1c0.1-0.8,0-1.5-0.4-2.2c-0.3-0.5-0.7-0.8-1.2-0.9C364.2,255.6,364,255.6,363.9,255.6L363.9,255.6z" class="st1"/><path id="path887" d="M378.4,258.5c-1,0.5-2,1-3,1.3c-1.4,0.5-2.2,0.6-2.6,0.6c-0.4-0.1-0.6-0.4-0.5-1.1 c0-0.2,0.1-0.4,0.3-0.6c0.1-0.1,0.4-0.2,0.8-0.3c1.3-0.3,3.1-1,5.6-2c1.1-0.5,1.9-0.7,2.3-0.6c0.3,0,0.5,0.2,0.7,0.5 c0.1,0.2,0.2,0.4,0.1,0.6c-0.1,0.3-0.4,0.8-1,1.5c-4.8,5.5-8.3,9.8-10.3,13c-0.5,0.8-0.8,1.3-1,1.5c-0.3,0.3-0.6,0.4-0.8,0.4 c-0.2,0-0.5-0.2-0.6-0.6c-0.1-0.2-0.1-0.4-0.1-0.6c0.1-0.7,1.5-2.9,4.2-6.4C374.9,262.4,376.9,260,378.4,258.5L378.4,258.5z" class="st1"/><path id="path889" d="M389.6,268.8c-0.2,0.3-0.7,1.1-1.6,2.2c-1.5,2.3-2.4,3.8-2.7,4.6c-0.2,0.4-0.4,0.7-0.6,0.8 c-0.2,0.1-0.4,0.2-0.7,0.1c-0.3-0.1-0.6-0.2-0.7-0.5c-0.1-0.2-0.2-0.5-0.1-0.8c0.2-1,1.5-3.2,3.8-6.7c-1.9-0.1-3.5,0-4.7,0.2 c-0.4,0.1-0.7,0.1-0.9,0.1c-0.5-0.1-0.7-0.5-0.6-1.4c0.1-0.5,0.4-0.9,0.8-1.3c0.9-0.7,2.3-1.8,4.4-3.2c2.5-1.7,4.7-3.1,6.7-4.1 c1.7-0.9,2.9-1.3,3.5-1.1c0.3,0.1,0.6,0.2,0.8,0.5c0.2,0.2,0.2,0.5,0.2,0.7c-0.1,0.3-0.3,0.8-0.8,1.3c-0.1,0.1-0.6,0.7-1.7,1.9 c-1.3,1.5-2.5,3-3.7,4.6c0.9,0.1,1.5,0.2,1.8,0.2c0.8,0.1,1.1,0.5,1,1.1c-0.1,0.5-0.4,0.8-0.8,1c-0.2,0.1-0.8,0-1.7-0.1 C391.1,269,390.5,268.9,389.6,268.8L389.6,268.8z M388.4,266.7c1.9-2.5,3.6-4.6,5.2-6.2c-1.5,0.5-3.4,1.6-5.6,3.1 c-1.6,1.1-3,2.2-4,3C386,266.6,387.5,266.6,388.4,266.7z" class="st1"/><path id="path891" d="M284.2,279.7c1.5-1.1,3.2-2.2,5.1-3.3c0.7-0.4,1.4-0.7,2.1-1c0.4-0.1,0.6-0.2,0.7-0.2 c0.2,0,0.4,0.2,0.5,0.5c0.1,0.2,0.1,0.3,0.1,0.5c0,0.2-0.3,0.5-0.9,0.8c-1.5,0.8-2.3,1.5-2.4,2c-0.1,0.3,0.1,0.5,0.4,0.5 c0.6,0.1,1.6-0.2,3.1-0.9c0.3-0.1,0.5-0.2,0.6-0.1c0.1,0,0.2,0.1,0.3,0.2c0.1,0.1,0.1,0.3,0.1,0.4c-0.1,0.4-0.7,0.9-2,1.5 c-1.3,0.7-2.5,0.9-3.5,0.7c-0.4-0.1-0.8-0.2-1.1-0.5c-0.3-0.2-0.4-0.6-0.3-1.1c0.1-0.3,0.3-0.7,0.6-1c-1.2,0.6-2.6,1.6-4.3,3.1 c-1,1-2,2.2-3.1,3.6c-0.4,0.5-0.8,0.8-1.3,0.7c-0.5-0.1-0.7-0.4-0.6-0.8c0.1-0.4,0.7-1.6,1.7-3.4c1.6-2.7,3.2-4.7,4.7-6.1 c0.9-0.8,1.6-1.2,2.1-1.1c0.2,0,0.3,0.1,0.4,0.2c0.1,0.2,0.2,0.3,0.2,0.5c0,0.2-0.2,0.4-0.5,0.8c-0.1,0.1-0.5,0.4-1.3,1.1 C285.3,278.3,284.7,279,284.2,279.7L284.2,279.7z" class="st1"/><path id="path893" d="M298.2,285.4c-0.6,0.7-1.1,1.2-1.6,1.7c-1,0.9-1.9,1.2-2.7,1.1c-0.7-0.1-1.2-0.5-1.5-1.3 c-0.2-0.5-0.2-1-0.1-1.6c0.2-1.4,1-3,2.2-4.6c1.4-1.8,2.8-3.1,4.4-3.8c1.1-0.5,2-0.7,2.9-0.5c0.5,0.1,1,0.3,1.3,0.7 c0.3,0.4,0.4,0.7,0.3,1.1c0,0.3-0.2,0.7-0.5,1.1c0.1,0.3,0.2,0.6,0.2,0.8c0,0.3-0.3,0.7-0.8,1.3c-0.5,0.6-1,1.4-1.6,2.3 c-0.6,1.1-1,1.9-1.1,2.6c-0.1,0.5,0,1,0.3,1.4c0.1,0.1,0.3,0.3,0.7,0.6c0.3,0.2,0.4,0.5,0.3,0.9c0,0.2-0.2,0.4-0.4,0.6 c-0.2,0.1-0.5,0.2-0.7,0.1c-0.7-0.1-1.3-0.5-1.7-1.3c-0.3-0.6-0.4-1.3-0.3-2C297.9,286.4,298,286,298.2,285.4L298.2,285.4z M301.7,279.4c-0.1-0.3-0.2-0.6-0.4-0.7c-0.2-0.2-0.3-0.3-0.5-0.3c-1-0.2-2.2,0.5-3.7,2c-1.6,1.7-2.5,3.2-2.8,4.5 c-0.1,0.3,0,0.6,0,0.8c0.1,0.2,0.3,0.3,0.5,0.4c0.6,0.1,1.5-0.4,2.5-1.6c0.6-0.6,1.4-1.6,2.3-2.9c0.6-0.8,1.1-1.4,1.3-1.7 C301.2,279.7,301.4,279.6,301.7,279.4L301.7,279.4z" class="st1"/><path id="path895" d="M309.4,278.6c0.2,0,0.4,0.2,0.5,0.3c0.1,0.2,0.1,0.3,0.1,0.5c0,0.2-0.3,0.6-0.8,1.1 c-1.7,1.9-3,3.4-3.8,4.7c-0.9,1.3-1.6,2.6-2.4,4c-0.3,0.6-0.7,0.9-1.1,0.8c-0.3,0-0.5-0.2-0.6-0.4c-0.1-0.2-0.2-0.4-0.1-0.6 c0.1-0.4,0.7-1.6,1.9-3.7c1-1.6,2.3-3.4,4.2-5.2c0.6-0.6,1-1,1.3-1.2C308.9,278.6,309.1,278.6,309.4,278.6L309.4,278.6z M314.4,272 c0.6,0.1,0.8,0.5,0.7,1.1c-0.1,0.5-0.5,1.1-1.2,1.7c-0.7,0.5-1.2,0.8-1.7,0.7c-0.2,0-0.4-0.2-0.6-0.4c-0.1-0.2-0.2-0.4-0.1-0.7 c0.1-0.6,0.6-1.2,1.4-1.8C313.5,272.1,314,271.9,314.4,272L314.4,272z" class="st1"/><path id="path897" d="M318.8,278.9c0.8,0.1,1.4,0.4,1.7,0.7c0.4,0.4,0.5,0.8,0.4,1.4c-0.1,0.8-0.5,1.5-1.2,2.1 c-0.7,0.6-1.6,1-2.7,1.2c-0.6,0.1-1.2,0.1-1.6,0.1c-0.5-0.1-0.8-0.4-0.7-0.9c0.1-0.3,0.3-0.5,0.6-0.7c0.1,0,0.5-0.1,1.4-0.1 c0.5,0,1-0.2,1.4-0.5c0.4-0.2,0.6-0.5,0.7-0.9c0-0.3,0-0.5-0.1-0.6c-0.1-0.2-0.4-0.3-0.7-0.3c-0.8-0.1-1.6,0-2.7,0.5 c-1.2,0.5-1.8,1.2-2,2.2c-0.1,0.7,0.1,1.6,0.6,2.7c0.6,1.2,0.8,2.2,0.7,3c-0.2,1.1-0.9,2-2,2.4c-0.7,0.3-1.4,0.4-2.2,0.2 c-1.3-0.2-2.1-0.8-2.6-1.8c-0.3-0.7-0.4-1.5-0.3-2.4c0.2-1,0.6-1.8,1.2-2.4c0.4-0.4,0.8-0.6,1.2-0.5c0.3,0.1,0.5,0.2,0.4,0.5 c0,0.1-0.1,0.3-0.3,0.4c-0.4,0.5-0.7,1.1-0.8,1.9c-0.1,0.6,0,1.2,0.4,1.7c0.3,0.5,0.8,0.7,1.3,0.8c0.5,0.1,0.9,0,1.3-0.3 c0.3-0.2,0.5-0.6,0.5-1c0.1-0.5-0.1-1.3-0.6-2.3c-0.7-1.3-0.9-2.5-0.7-3.5c0.2-1.3,1.1-2.3,2.7-3.1 C315.7,278.9,317.2,278.6,318.8,278.9L318.8,278.9z" class="st1"/><path id="path899" d="M324.9,281.3c0.2,0,0.4,0.2,0.5,0.3c0.1,0.2,0.1,0.3,0.1,0.5c0,0.2-0.3,0.6-0.8,1.1 c-1.7,1.9-3,3.4-3.8,4.7c-0.9,1.3-1.6,2.6-2.4,4c-0.3,0.6-0.7,0.9-1.1,0.8c-0.3,0-0.5-0.2-0.6-0.4c-0.1-0.2-0.2-0.4-0.1-0.6 c0.1-0.4,0.7-1.6,1.9-3.7c1-1.6,2.3-3.4,4.2-5.2c0.6-0.6,1-1,1.3-1.2C324.4,281.3,324.6,281.2,324.9,281.3L324.9,281.3z M329.9,274.6c0.6,0.1,0.8,0.5,0.7,1.1c-0.1,0.5-0.5,1.1-1.2,1.7c-0.7,0.5-1.2,0.8-1.7,0.7c-0.2,0-0.4-0.2-0.6-0.4 c-0.1-0.2-0.2-0.4-0.1-0.7c0.1-0.6,0.6-1.2,1.4-1.8C328.9,274.8,329.4,274.6,329.9,274.6L329.9,274.6z" class="st1"/><path id="path901" d="M327.8,286.9c0.2-0.1,0.4-0.3,0.6-0.4c3.2-2.2,5.2-3.2,6.2-3c0.5,0.1,0.7,0.4,0.6,1 c-0.1,0.4-0.4,0.8-0.9,1.3c-3,2.5-4.7,4.8-5.1,7c-0.1,0.7,0,1.4,0.2,2.2c0.1,0.3,0.2,0.6,0.2,0.8c0,0.2-0.1,0.3-0.3,0.4 c-0.2,0.2-0.4,0.2-0.7,0.2c-0.5-0.1-0.9-0.5-1.2-1.2c-0.2-0.7-0.3-1.5-0.1-2.4c0.3-1.8,1.3-3.6,3-5.5c-2,0.8-4,2.6-6,5.2 c-0.5,0.6-1,0.9-1.4,0.8c-0.2,0-0.4-0.1-0.5-0.3c-0.2-0.2-0.2-0.5-0.2-0.8c0.1-0.7,1.2-2.4,3.4-5.1c1.1-1.5,2-2.5,2.6-3.2 c0.6-0.6,1.1-0.9,1.5-0.9c0.2,0,0.3,0.1,0.4,0.3c0.2,0.2,0.2,0.4,0.2,0.7c0,0.3-0.3,0.7-0.8,1.1 C328.9,285.7,328.3,286.3,327.8,286.9L327.8,286.9z" class="st1"/><path id="path903" d="M339.5,294.1c1.6-0.8,2.8-1.5,3.6-2.2c1.2-1,2.1-1.9,2.6-2.6c0.3-0.3,0.5-0.4,0.7-0.4 c0.3,0.1,0.4,0.2,0.4,0.5c-0.1,0.4-0.4,0.9-1,1.6c-2,2.2-4.7,4-8.1,5.4c-2,2.8-3.4,4.6-4.2,5.6c-2.3,2.5-4.2,3.6-5.8,3.4 c-0.8-0.1-1.4-0.6-1.6-1.3c-0.1-0.4-0.2-0.9-0.1-1.3c0.4-2,2-3.8,5-5.2c0.5-0.2,2.3-0.9,5.6-2.1c0.8-1.1,1.4-2,1.8-2.6 c-1.6,1.2-2.9,1.7-3.8,1.6c-0.6-0.1-0.9-0.5-1.2-1.1c-0.1-0.4-0.2-0.8-0.1-1.2c0.2-0.9,0.8-2.1,1.8-3.4c1.5-1.9,3.1-3.4,4.8-4.4 c1.5-0.8,2.7-1.1,3.7-1c0.5,0.1,0.9,0.4,1.2,0.8c0.2,0.3,0.3,0.7,0.2,1.2c-0.1,0.6-0.4,1.3-1,2.1c0.3,0.3,0.4,0.6,0.3,0.7 c0,0.1-0.1,0.2-0.3,0.4c-0.4,0.4-1.2,1.2-2.2,2.4C341.1,291.9,340.3,293,339.5,294.1L339.5,294.1z M340.2,289.6 c-0.1-0.2-0.2-0.4-0.2-0.5c0-0.1,0.1-0.3,0.4-0.4c0.8-0.5,1.4-1.1,1.9-1.7c0.4-0.5,0.7-0.9,0.7-1.2c0.1-0.4-0.1-0.6-0.4-0.6 c-0.6-0.1-1.5,0.3-2.7,1.2c-1.5,1.1-2.7,2.3-3.6,3.7c-0.5,0.7-0.7,1.3-0.8,1.7c0,0.2,0,0.4,0.1,0.6c0.1,0.1,0.2,0.2,0.4,0.3 c0.5,0.1,1.2-0.3,2.2-1.1c0.6-0.5,1.2-1,1.6-1.5C340,289.8,340.2,289.6,340.2,289.6L340.2,289.6z M335,297.5 c-1.8,0.4-3.6,1.3-5.1,2.5c-0.7,0.6-1.3,1.2-1.7,2c-0.1,0.2-0.2,0.4-0.2,0.6c0,0.2,0,0.3,0,0.5c0.1,0.3,0.3,0.4,0.5,0.5 c0.8,0.1,1.9-0.6,3.3-2.1C333,300,334.1,298.7,335,297.5z" class="st1"/><path id="path905" d="M366.8,287.2c0.8,0.1,1.4,0.4,1.7,0.7c0.4,0.4,0.5,0.8,0.4,1.4c-0.1,0.8-0.5,1.5-1.2,2.1 c-0.7,0.6-1.6,1-2.7,1.2c-0.6,0.1-1.2,0.1-1.6,0.1c-0.5-0.1-0.8-0.4-0.7-0.9c0.1-0.3,0.3-0.5,0.6-0.7c0.1,0,0.5-0.1,1.4-0.1 c0.5,0,1-0.2,1.4-0.5c0.4-0.2,0.6-0.5,0.7-0.9c0-0.3,0-0.5-0.1-0.6c-0.1-0.2-0.4-0.3-0.7-0.3c-0.8-0.1-1.6,0-2.7,0.5 c-1.2,0.5-1.8,1.2-2,2.2c-0.1,0.7,0.1,1.6,0.6,2.7c0.6,1.2,0.8,2.2,0.7,3c-0.2,1.1-0.9,2-2,2.4c-0.7,0.3-1.4,0.4-2.2,0.2 c-1.3-0.2-2.1-0.8-2.6-1.8c-0.3-0.7-0.4-1.5-0.3-2.4c0.2-1,0.6-1.8,1.2-2.4c0.4-0.4,0.8-0.6,1.2-0.5c0.3,0.1,0.5,0.2,0.4,0.5 c0,0.1-0.1,0.3-0.3,0.4c-0.4,0.5-0.7,1.1-0.8,1.9c-0.1,0.6,0,1.2,0.4,1.7c0.3,0.5,0.8,0.7,1.3,0.8c0.5,0.1,0.9,0,1.3-0.3 c0.3-0.2,0.5-0.6,0.5-1c0.1-0.5-0.1-1.3-0.6-2.3c-0.7-1.3-0.9-2.5-0.7-3.5c0.2-1.3,1.1-2.3,2.7-3.1 C363.8,287.1,365.3,286.9,366.8,287.2L366.8,287.2z" class="st1"/><path id="path907" d="M375.1,289c-1.1,1.2-2.1,2.5-3.1,4c-1.4,2.1-2.2,3.8-2.4,4.9c-0.1,0.3,0,0.6,0.1,0.8 c0.1,0.2,0.3,0.3,0.6,0.4c0.7,0.1,1.5-0.4,2.7-1.4c0.7-0.7,1.4-1.3,2-2c0.3-0.4,0.6-0.6,0.9-0.5c0.2,0,0.3,0.1,0.4,0.3 c0.1,0.1,0.1,0.3,0.1,0.4c-0.1,0.5-0.9,1.4-2.5,2.9c-1.9,1.7-3.4,2.5-4.7,2.3c-0.7-0.1-1.2-0.5-1.5-1.2c-0.2-0.4-0.2-1-0.1-1.7 c0.3-1.6,1-3.3,2.3-5.3c0.3-0.5,1.1-1.6,2.5-3.5c-0.4,0-0.6,0-0.8,0c-0.3,0-0.5-0.2-0.7-0.3c-0.3-0.2-0.4-0.5-0.3-0.8 c0.1-0.3,0.3-0.6,0.7-0.7c0.1,0,0.6,0,1.5,0c0.3,0,0.8,0,1.4-0.1c0.6-0.7,1.5-1.7,2.8-3c0.7-0.7,1.2-1.1,1.5-1.3 c0.4-0.3,0.7-0.4,0.9-0.3c0.2,0,0.3,0.1,0.5,0.4c0.1,0.2,0.2,0.4,0.1,0.5c-0.1,0.3-0.5,0.9-1.4,1.8c-0.6,0.6-1,1-1.3,1.4 c1.5-0.1,2.6-0.2,3.2-0.1c0.7,0.1,1,0.5,0.9,1.1c-0.1,0.3-0.2,0.5-0.5,0.6c-0.1,0.1-0.5,0.1-1.1,0c-0.2-0.1-1.2,0-3.1,0.2 C376.1,288.8,375.6,288.9,375.1,289L375.1,289z" class="st1"/><path id="path909" d="M381.9,299.8c-0.6,0.7-1.1,1.2-1.6,1.7c-1,0.9-1.9,1.2-2.7,1.1c-0.7-0.1-1.2-0.5-1.5-1.3 c-0.2-0.5-0.2-1-0.1-1.6c0.2-1.4,1-3,2.2-4.6c1.4-1.8,2.8-3.1,4.4-3.8c1.1-0.5,2-0.7,2.9-0.5c0.5,0.1,1,0.3,1.3,0.7 c0.3,0.4,0.4,0.7,0.3,1.1c0,0.3-0.2,0.7-0.5,1.1c0.1,0.3,0.2,0.6,0.2,0.8c0,0.3-0.3,0.7-0.8,1.3c-0.5,0.6-1,1.4-1.6,2.3 c-0.6,1.1-1,1.9-1.1,2.6c-0.1,0.5,0,1,0.3,1.4c0.1,0.1,0.3,0.3,0.7,0.6c0.3,0.2,0.4,0.5,0.3,0.9c0,0.2-0.2,0.4-0.4,0.6 c-0.2,0.1-0.5,0.2-0.7,0.1c-0.7-0.1-1.3-0.5-1.7-1.3c-0.3-0.6-0.4-1.3-0.3-2C381.6,300.8,381.7,300.4,381.9,299.8L381.9,299.8z M385.4,293.8c-0.1-0.3-0.2-0.6-0.4-0.7c-0.2-0.2-0.3-0.3-0.5-0.3c-1-0.2-2.2,0.5-3.7,2c-1.6,1.7-2.5,3.2-2.8,4.5 c-0.1,0.3,0,0.6,0,0.8c0.1,0.2,0.3,0.3,0.5,0.4c0.6,0.1,1.5-0.4,2.5-1.6c0.6-0.6,1.4-1.6,2.3-2.9c0.6-0.8,1.1-1.4,1.3-1.7 C384.9,294.1,385.1,294,385.4,293.8z" class="st1"/><path id="path911" d="M390.8,297.7c0.2-0.1,0.4-0.3,0.6-0.4c3.2-2.2,5.2-3.2,6.2-3c0.5,0.1,0.7,0.4,0.6,1 c-0.1,0.4-0.4,0.8-0.9,1.3c-3,2.5-4.7,4.8-5.1,7c-0.1,0.7,0,1.4,0.2,2.2c0.1,0.3,0.2,0.6,0.2,0.8c0,0.2-0.1,0.3-0.3,0.4 c-0.2,0.2-0.4,0.2-0.7,0.2c-0.5-0.1-0.9-0.5-1.2-1.2c-0.2-0.7-0.3-1.5-0.1-2.4c0.3-1.8,1.3-3.6,3-5.5c-2,0.8-4,2.6-6,5.2 c-0.5,0.6-1,0.9-1.4,0.8c-0.2,0-0.4-0.1-0.5-0.3c-0.2-0.2-0.2-0.5-0.2-0.8c0.1-0.7,1.2-2.4,3.4-5.1c1.1-1.5,2-2.5,2.6-3.2 c0.6-0.6,1.1-0.9,1.5-0.9c0.2,0,0.3,0.1,0.4,0.3c0.2,0.2,0.2,0.4,0.2,0.7c0,0.3-0.3,0.7-0.8,1.1 C391.8,296.5,391.2,297.1,390.8,297.7z" class="st1"/><path id="path913" d="M406.2,295.5c1.8-2.5,3.4-4.7,4.9-6.5c1.5-1.8,2.4-2.9,2.9-3.3c0.5-0.5,1-0.7,1.4-0.6 c0.2,0,0.4,0.2,0.5,0.4c0.1,0.2,0.2,0.4,0.1,0.6c-0.1,0.3-0.4,0.8-0.9,1.4c-2.4,2.7-4.7,5.5-6.8,8.4c-2.5,3.4-3.8,5.9-4.2,7.8 c-0.1,0.7-0.1,1.4,0.1,1.8c0,0.1,0.2,0.3,0.6,0.7c0.1,0.1,0.1,0.2,0.1,0.4c0,0.3-0.2,0.5-0.4,0.7c-0.2,0.2-0.5,0.2-0.7,0.2 c-0.3-0.1-0.6-0.3-0.9-0.7c-0.4-0.6-0.6-1.3-0.6-2c0-0.3,0.1-0.8,0.1-1.6c-1.8,2.2-3.3,3.2-4.5,3c-0.7-0.1-1.2-0.6-1.5-1.5 c-0.2-0.6-0.2-1.2-0.1-1.9c0.3-2,1.4-4,3.3-5.8c1.8-1.8,3.6-2.5,5.3-2.2C405.3,294.9,405.7,295.1,406.2,295.5L406.2,295.5z M405.2,297c-0.3-0.3-0.6-0.5-0.9-0.5c-1.1-0.2-2.2,0.3-3.5,1.5c-1.6,1.5-2.5,3.1-2.8,4.7c0,0.2,0,0.4,0,0.6 c0.1,0.4,0.3,0.6,0.6,0.6c0.5,0.1,1.1-0.3,1.9-1c1.1-1,2.1-2.3,3.1-3.7c0.4-0.5,0.7-1,1-1.5c0,0,0.1-0.1,0.2-0.3L405.2,297z" class="st1"/><path id="path915" d="M413.1,305.2c-0.6,0.7-1.1,1.2-1.6,1.7c-1,0.9-1.9,1.2-2.7,1.1c-0.7-0.1-1.2-0.5-1.5-1.3 c-0.2-0.5-0.2-1-0.1-1.6c0.2-1.4,1-3,2.2-4.6c1.4-1.8,2.8-3.1,4.4-3.8c1.1-0.5,2-0.7,2.9-0.5c0.5,0.1,1,0.3,1.3,0.7 c0.3,0.4,0.4,0.7,0.3,1.1c0,0.3-0.2,0.7-0.5,1.1c0.1,0.3,0.2,0.6,0.2,0.8c0,0.3-0.3,0.7-0.8,1.3c-0.5,0.6-1,1.4-1.6,2.3 c-0.6,1.1-1,1.9-1.1,2.6c-0.1,0.5,0,1,0.3,1.4c0.1,0.1,0.3,0.3,0.7,0.6c0.3,0.2,0.4,0.5,0.3,0.9c0,0.2-0.2,0.4-0.4,0.6 c-0.2,0.1-0.5,0.2-0.7,0.1c-0.7-0.1-1.3-0.5-1.7-1.3c-0.3-0.6-0.4-1.3-0.3-2C412.8,306.2,412.9,305.8,413.1,305.2L413.1,305.2z M416.7,299.2c-0.1-0.3-0.2-0.6-0.4-0.7c-0.2-0.2-0.3-0.3-0.5-0.3c-1-0.2-2.2,0.5-3.7,2c-1.6,1.7-2.5,3.2-2.8,4.5 c-0.1,0.3,0,0.6,0,0.8c0.1,0.2,0.3,0.3,0.5,0.4c0.6,0.1,1.5-0.4,2.5-1.6c0.6-0.6,1.4-1.6,2.3-2.9c0.6-0.8,1.1-1.4,1.3-1.7 C416.1,299.5,416.3,299.3,416.7,299.2z" class="st1"/><path id="path917" d="M421.9,303.4c1.5-1.1,3.2-2.2,5.1-3.3c0.7-0.4,1.4-0.7,2.1-1c0.4-0.1,0.6-0.2,0.7-0.2 c0.2,0,0.4,0.2,0.5,0.5c0.1,0.2,0.1,0.3,0.1,0.5c0,0.2-0.3,0.5-0.9,0.8c-1.5,0.8-2.3,1.5-2.4,2c-0.1,0.3,0.1,0.5,0.4,0.5 c0.6,0.1,1.6-0.2,3.1-0.9c0.3-0.1,0.5-0.2,0.6-0.1c0.1,0,0.2,0.1,0.3,0.2c0.1,0.1,0.1,0.3,0.1,0.4c-0.1,0.4-0.7,0.9-2,1.5 c-1.3,0.7-2.5,0.9-3.5,0.7c-0.4-0.1-0.8-0.2-1.1-0.5c-0.3-0.2-0.4-0.6-0.3-1.1c0.1-0.3,0.3-0.7,0.6-1c-1.2,0.6-2.6,1.6-4.3,3.1 c-1,1-2,2.2-3.1,3.6c-0.4,0.5-0.8,0.8-1.3,0.7c-0.5-0.1-0.7-0.4-0.6-0.8c0.1-0.4,0.7-1.6,1.7-3.4c1.6-2.7,3.2-4.7,4.7-6.1 c0.9-0.8,1.6-1.2,2.1-1.1c0.2,0,0.3,0.1,0.4,0.2c0.1,0.2,0.2,0.3,0.2,0.5c0,0.2-0.2,0.4-0.5,0.8c-0.1,0.1-0.5,0.4-1.3,1.1 C422.9,302,422.3,302.7,421.9,303.4L421.9,303.4z" class="st1"/><path id="path919" d="M439.3,301.2c1.8-2.5,3.4-4.7,4.9-6.5c1.5-1.8,2.4-2.9,2.9-3.3c0.5-0.5,1-0.7,1.4-0.6 c0.2,0,0.4,0.2,0.5,0.4c0.1,0.2,0.2,0.4,0.1,0.6c-0.1,0.3-0.4,0.8-0.9,1.4c-2.4,2.7-4.7,5.5-6.8,8.4c-2.5,3.4-3.8,5.9-4.2,7.8 c-0.1,0.7-0.1,1.4,0.1,1.8c0,0.1,0.2,0.3,0.6,0.7c0.1,0.1,0.1,0.2,0.1,0.4c0,0.3-0.2,0.5-0.4,0.7c-0.2,0.2-0.5,0.2-0.7,0.2 c-0.3-0.1-0.6-0.3-0.9-0.7c-0.4-0.6-0.6-1.3-0.6-2c0-0.3,0.1-0.8,0.1-1.6c-1.8,2.2-3.3,3.2-4.5,3c-0.7-0.1-1.2-0.6-1.5-1.5 c-0.2-0.6-0.2-1.2-0.1-1.9c0.3-2,1.4-4,3.3-5.8c1.8-1.8,3.6-2.5,5.3-2.2C438.4,300.6,438.9,300.8,439.3,301.2L439.3,301.2z M438.4,302.7c-0.3-0.3-0.6-0.5-0.9-0.5c-1.1-0.2-2.2,0.3-3.5,1.5c-1.6,1.5-2.5,3.1-2.8,4.7c0,0.2,0,0.4,0,0.6 c0.1,0.4,0.3,0.6,0.6,0.6c0.5,0.1,1.1-0.3,1.9-1c1.1-1,2.1-2.3,3.1-3.7c0.4-0.5,0.7-1,1-1.5c0,0,0.1-0.1,0.2-0.3L438.4,302.7z" class="st1"/><path id="path921" d="M451.2,301.7c0.8,0.1,1.4,0.4,1.7,0.7c0.4,0.4,0.5,0.8,0.4,1.4c-0.1,0.8-0.5,1.5-1.2,2.1 c-0.7,0.6-1.6,1-2.7,1.2c-0.6,0.1-1.2,0.1-1.6,0.1c-0.5-0.1-0.8-0.4-0.7-0.9c0.1-0.3,0.3-0.5,0.6-0.7c0.1,0,0.5-0.1,1.4-0.1 c0.5,0,1-0.2,1.4-0.5c0.4-0.2,0.6-0.5,0.7-0.9c0-0.3,0-0.5-0.1-0.6c-0.1-0.2-0.4-0.3-0.7-0.3c-0.8-0.1-1.6,0-2.7,0.5 c-1.2,0.5-1.8,1.2-2,2.2c-0.1,0.7,0.1,1.6,0.6,2.7c0.6,1.2,0.8,2.2,0.7,3c-0.2,1.1-0.9,2-2,2.4c-0.7,0.3-1.4,0.4-2.2,0.2 c-1.3-0.2-2.1-0.8-2.6-1.8c-0.3-0.7-0.4-1.5-0.3-2.4c0.2-1,0.6-1.8,1.2-2.4c0.4-0.4,0.8-0.6,1.2-0.5c0.3,0.1,0.5,0.2,0.4,0.5 c0,0.1-0.1,0.3-0.3,0.4c-0.4,0.5-0.7,1.1-0.8,1.9c-0.1,0.6,0,1.2,0.4,1.7c0.3,0.5,0.8,0.7,1.3,0.8c0.5,0.1,0.9,0,1.3-0.3 c0.3-0.2,0.5-0.6,0.5-1c0.1-0.5-0.1-1.3-0.6-2.3c-0.7-1.3-0.9-2.5-0.7-3.5c0.2-1.3,1.1-2.3,2.7-3.1 C448.1,301.6,449.6,301.4,451.2,301.7L451.2,301.7z" class="st1"/><path id="path923" d="M469.2,292.7c0.3,0,0.5,0.2,0.6,0.5c0.1,0.2,0.1,0.5,0.1,0.7c-0.1,0.5-0.7,1.5-1.7,2.8 c-4.2,5.5-8,10-11.3,13.6c-0.5,0.6-0.9,1-1,1.2c-0.4,0.6-0.9,0.8-1.2,0.8c-0.3,0-0.5-0.2-0.6-0.6c-0.1-0.3-0.2-0.6-0.1-0.8 c0.1-0.4,0.3-0.8,0.8-1.4c0.1-0.2,0.7-0.8,1.7-1.9c1.3-1.6,2.6-3.1,4-4.6c0.4-0.5,1.8-2.2,4-5c0.8-1,1.4-1.8,1.9-2.3 c0.5-0.7,1.1-1.4,1.6-2.1C468.3,292.9,468.7,292.7,469.2,292.7L469.2,292.7z M452.4,313.8c0.3,0,0.5,0.2,0.7,0.5 c0.1,0.2,0.1,0.4,0.1,0.7c-0.1,0.6-0.4,1.2-0.8,1.8c-0.5,0.7-1,0.9-1.6,0.8c-0.6-0.1-0.8-0.5-0.7-1.2c0.1-0.7,0.4-1.3,1-2 C451.5,314,452,313.7,452.4,313.8L452.4,313.8z" class="st1"/></g><g id="g1640" transform="matrix(0.91447619,0,0,0.91447619,-157.83317,80.589079)"><g id="text849-2" transform="matrix(0.62421864,0,0,0.62421864,84.288705,217.35773)"><path id="path936" d="M177.9-367.4c0-14.6,10.7-21.9,32-21.9c5,0,10,0.5,15,1.4 v-5.5c0-6.6-4.7-9.9-14.2-9.9c-8,0-17,1.2-26.8,3.5v-14.7c9.8-2.3,18.7-3.5,26.8-3.5c21.9,0,32.8,8.1,32.8,24.2v49.3h-10.8 l-6.6-6.6c-6.4,4.4-13.5,6.6-21.2,6.6C186.9-344.5,177.9-352.2,177.9-367.4L177.9-367.4z M224.9-375.4c-4.7-0.9-9.7-1.4-15-1.4 c-8.9,0-13.4,3-13.4,9.1c0,6.5,3.7,9.8,11.2,9.8c6.2,0,11.9-1.9,17.2-5.7L224.9-375.4z" class="st0"/><path id="path938" d="M279.6-444.7v14.7h-18.6v-14.7H279.6z M279.6-418.1v73.6 h-18.6v-73.6H279.6z" class="st0"/><path id="path940" d="M297.2-344.5v-73.6h14.4l2.2,10.7 c6.6-7.1,14.5-10.7,23.8-10.7c9.3,0,15.6,3.4,19,10.1c7.5-6.7,15.4-10.1,23.6-10.1c16.9,0,25.4,9.3,25.4,28v45.6h-18.6v-46.3 c0-8.2-3.7-12.3-11.1-12.3c-5.5,0-10.8,2.5-15.9,7.4v51.2h-18.6v-46.1c0-8.3-3.4-12.5-10.2-12.5c-5.4,0-10.5,2.5-15.3,7.4v51.2 H297.2z" class="st0"/><path id="path942" d="M416.8-418.1h18.7l9.5,51.2l17-51.2H478l18.4,51.2l8.3-51.2 h19.3l-19.2,73.6h-17.5L470-396.7l-17.5,52.2h-17.7L416.8-418.1z" class="st0"/><path id="path944" d="M531.7-367.4c0-14.6,10.7-21.9,32-21.9c5,0,10,0.5,15,1.4 v-5.5c0-6.6-4.7-9.9-14.2-9.9c-8,0-17,1.2-26.8,3.5v-14.7c9.8-2.3,18.7-3.5,26.8-3.5c21.9,0,32.8,8.1,32.8,24.2v49.3h-10.8 l-6.6-6.6c-6.4,4.4-13.5,6.6-21.2,6.6C540.7-344.5,531.7-352.2,531.7-367.4L531.7-367.4z M578.7-375.4c-4.7-0.9-9.7-1.4-15-1.4 c-8.9,0-13.4,3-13.4,9.1c0,6.5,3.7,9.8,11.2,9.8c6.2,0,11.9-1.9,17.2-5.7V-375.4z" class="st0"/><path id="path946" d="M614.8-344.5v-73.6h14.4l2.3,9.4c6.4-6.3,13.3-9.4,20.5-9.4 v15c-6.9,0-13.1,2.9-18.6,8.6v50H614.8z" class="st0"/><path id="path948" d="M693.5-418.1c22.3,0,33.5,11.4,33.5,34.2c0,3-0.2,6.1-0.6,9.1 h-48.8c0,10.4,7.6,15.6,22.8,15.6c7.4,0,14.9-0.7,22.3-2.1v14.7c-6.5,1.4-14.4,2.1-23.7,2.1c-26.7,0-40-12.5-40-37.6 C659-406.1,670.5-418.1,693.5-418.1L693.5-418.1z M677.6-387.7H709v-0.6c0-10.2-5.1-15.3-15.4-15.3 C683.7-403.5,678.4-398.3,677.6-387.7z" class="st0"/></g><g id="text880-6" transform="matrix(0.63762042,0,0,0.61109854,84.288705,217.35773)"><path id="path951" d="M177.1-339.4c2-1.9,4.4-2.9,7.2-2.9c2.8,0,5.2,1,7.2,2.9 c2,1.9,2.9,4.4,2.9,7.4c0,3-1,5.5-2.9,7.4c-2,1.9-4.4,2.9-7.2,2.9c-2.8,0-5.2-1-7.2-2.9c-2-1.9-2.9-4.4-2.9-7.5 C174.2-335,175.2-337.5,177.1-339.4z M178.3-332c0,2.1,0.6,3.7,1.8,4.9c1.2,1.2,2.6,1.8,4.2,1.8c1.6,0,3-0.6,4.2-1.7 c1.2-1.2,1.8-2.8,1.8-4.9c0-2.1-0.6-3.7-1.8-4.9c-1.2-1.2-2.6-1.8-4.2-1.8c-1.6,0-3,0.6-4.2,1.8C178.9-335.7,178.3-334,178.3-332z" class="st0"/><path id="path953" d="M203-341.9h5.2l5.9,11.7l1.6,4l0.3,0l-0.8-5.1v-10.6h4v19.7 h-5.2l-5.8-11.7l-1.5-4.1l-0.3,0l0.7,5.3v10.6H203V-341.9z" class="st0"/><path id="path955" d="M239-341.9v3.6h-7.5v4.5h7.3v3.6h-7.3v4.4h7.5v3.6h-11.5 v-19.7H239z" class="st0"/><path id="path957" d="M272.4-338.6l-3,1.7c-0.6-1.1-1.6-1.7-2.8-1.7 c-0.6,0-1.2,0.1-1.7,0.5c-0.5,0.3-0.7,0.9-0.8,1.5c0,0.4,0.1,0.9,0.5,1.2c0.4,0.4,0.7,0.6,1.1,0.8c0.4,0.1,0.8,0.3,1.3,0.4 c0.9,0.2,1.6,0.5,2.3,0.8c0.7,0.3,1.3,0.7,1.9,1.2c0.6,0.5,1.1,1.2,1.4,2c0.3,0.8,0.5,1.7,0.4,2.8c-0.1,1.2-0.4,2.3-1.1,3.2 c-0.7,0.9-1.5,1.5-2.5,1.9c-1,0.4-2,0.6-3.1,0.6c-1.3,0-2.6-0.4-3.8-1.1c-1.2-0.7-2.2-1.9-2.9-3.6l3.1-1.8c0.4,1,1,1.7,1.7,2.2 c0.7,0.5,1.4,0.7,2,0.7c0.8,0,1.4-0.2,1.9-0.6c0.5-0.4,0.8-1,0.8-1.7c0.1-0.8-0.2-1.5-0.8-1.9c-0.6-0.5-1.3-0.8-2.2-1.1 c-3.9-1-5.9-3-5.8-5.9c0-1.8,0.7-3.3,1.9-4.2c1.3-1,2.8-1.5,4.5-1.5C269.2-342.3,271.1-341.1,272.4-338.6z" class="st0"/><path id="path959" d="M279.8-341.9h12.9v3.7h-4.4v15.9h-4.1v-15.9h-4.4L279.8-341.9 z" class="st0"/><path id="path961" d="M311.3-341.9v3.6h-7.5v4.5h7.3v3.6h-7.3v4.4h7.5v3.6h-11.5 v-19.7H311.3z" class="st0"/><path id="path963" d="M323.4-328.7v6.5h-4v-19.7h6.3c2.2,0,3.9,0.7,5.1,2 c1.2,1.3,1.8,2.9,1.8,4.7c0,1.8-0.6,3.3-1.8,4.6c-1.2,1.3-2.9,1.9-5.1,1.9H323.4z M325.7-332.3c0.9,0,1.6-0.3,2.1-0.9 c0.5-0.6,0.8-1.3,0.8-2c0-0.8-0.3-1.5-0.8-2.1c-0.5-0.7-1.2-1-2.1-1h-2.3v6.1H325.7z" class="st0"/><path id="path965" d="M366.1-322.2l-1.7-5.3h-6.8l-1.7,5.3h-4.3l6.7-19.8h5.3 l6.8,19.8H366.1z M361.2-339.1H361l-0.6,3.2l-1.5,4.7h4.4l-1.5-4.7L361.2-339.1z" class="st0"/><path id="path967" d="M387.6-322.2v-8h-6.1v8h-4.1v-19.7h4.1v8h6.1v-8h4.1v19.7 H387.6z" class="st0"/><path id="path969" d="M411.5-341.9v3.6h-7.5v4.5h7.3v3.6h-7.3v4.4h7.5v3.6H400 v-19.7H411.5z" class="st0"/><path id="path971" d="M431.4-322.2l-1.7-5.3H423l-1.7,5.3h-4.3l6.7-19.8h5.3 l6.8,19.8H431.4z M426.5-339.1h-0.2l-0.6,3.2l-1.5,4.7h4.4l-1.5-4.7L426.5-339.1z" class="st0"/><path id="path973" d="M449.2-342c1.4,0,2.8,0.2,4,0.7c1.2,0.4,2.2,1,2.9,1.8 c0.8,0.8,1.4,1.6,2,2.6s0.9,2,1,3.1c0.1,1.1,0.1,2.2,0,3.3c-0.1,1.1-0.4,2.1-1,3.1c-0.5,1-1.2,1.9-2,2.6c-0.8,0.8-1.7,1.4-2.9,1.8 s-2.5,0.7-4,0.7h-6.5V-342H449.2z M449.2-325.8c1.3,0,2.4-0.3,3.3-0.9c0.9-0.6,1.6-1.4,2-2.3c0.4-0.9,0.6-1.9,0.6-3 s-0.2-2.1-0.6-3c-0.4-0.9-1.1-1.7-2-2.4s-2-1-3.3-1h-2.4v12.6H449.2z" class="st0"/><path id="path975" d="M483.3-339.4c2-1.9,4.4-2.9,7.2-2.9c2.8,0,5.2,1,7.2,2.9 c2,1.9,2.9,4.4,2.9,7.4c0,3-1,5.5-2.9,7.4c-2,1.9-4.4,2.9-7.2,2.9c-2.8,0-5.2-1-7.2-2.9c-2-1.9-2.9-4.4-2.9-7.5 C480.3-335,481.3-337.5,483.3-339.4z M484.4-332c0,2.1,0.6,3.7,1.8,4.9c1.2,1.2,2.6,1.8,4.2,1.8c1.6,0,3-0.6,4.2-1.7 c1.2-1.2,1.8-2.8,1.8-4.9c0-2.1-0.6-3.7-1.8-4.9c-1.2-1.2-2.6-1.8-4.2-1.8c-1.6,0-3,0.6-4.2,1.8C485-335.7,484.4-334,484.4-332z" class="st0"/><path id="path977" d="M520.3-341.9v3.7h-7.5v4.5h7.3v3.7h-7.3v7.7h-4v-19.6H520.3z" class="st0"/><path id="path979" d="M540.4-341.9h12.9v3.7h-4.4v15.9h-4.1v-15.9h-4.4L540.4-341.9 z" class="st0"/><path id="path981" d="M570.9-322.2v-8h-6.1v8h-4.1v-19.7h4.1v8h6.1v-8h4.1v19.7 H570.9z" class="st0"/><path id="path983" d="M594.9-341.9v3.6h-7.5v4.5h7.3v3.6h-7.3v4.4h7.5v3.6h-11.5 v-19.7H594.9z" class="st0"/><path id="path985" d="M626-342.3c1.7,0,3.2,0.3,4.5,0.9c1.3,0.6,2.5,1.6,3.7,3.1 l-2.9,2.1c-1.3-1.6-3.1-2.4-5.3-2.4c-1.2,0-2.3,0.3-3.3,1c-0.9,0.7-1.6,1.5-2.1,2.5c-0.4,1-0.6,2-0.6,3.1c0,1.6,0.6,3.1,1.7,4.5 c1.1,1.3,2.6,2,4.4,2c3.1,0,4.9-1.3,5.4-3.9H624v-3.5h11.6c0.2,3.5-0.6,6.2-2.4,8.2c-1.8,2-4.2,3-7.3,3c-2.1,0-3.9-0.5-5.5-1.5 c-1.6-1-2.7-2.3-3.4-3.8c-0.7-1.5-1.1-3.1-1.1-4.9c0-1.8,0.4-3.5,1.1-5c0.7-1.6,1.9-2.8,3.4-3.8 C622.1-341.8,623.9-342.3,626-342.3L626-342.3z" class="st0"/><path id="path987" d="M656.3-322.2l-1.7-5.3h-6.8l-1.7,5.3h-4.3l6.7-19.8h5.3 l6.8,19.8H656.3z M651.4-339.1h-0.2l-0.6,3.2l-1.5,4.7h4.4l-1.5-4.7L651.4-339.1z" class="st0"/><path id="path989" d="M675.9-325.2l-3.4-7.1l-1.7-5.4h-0.2l0.8,5.5v10h-4v-19.7h5.2 l4.9,11.7l4.9-11.7h5.2v19.7h-4v-10l0.8-5.6h-0.2l-1.7,5.4l-3.4,7.1H675.9z" class="st0"/><path id="path991" d="M707.1-341.9v3.6h-7.5v4.5h7.3v3.6h-7.3v4.4h7.5v3.6h-11.5 v-19.7H707.1z" class="st0"/></g></g></svg>