<?xml version="1.0" encoding="utf-8"?>
<!-- Generator: Adobe Illustrator 24.1.1, SVG Export Plug-In . SVG Version: 6.00 Build 0)  -->
<svg version="1.1"
	 id="svg8" xmlns:cc="http://creativecommons.org/ns#" xmlns:dc="http://purl.org/dc/elements/1.1/" xmlns:inkscape="http://www.inkscape.org/namespaces/inkscape" xmlns:rdf="http://www.w3.org/1999/02/22-rdf-syntax-ns#" xmlns:sodipodi="http://sodipodi.sourceforge.net/DTD/sodipodi-0.dtd" xmlns:svg="http://www.w3.org/2000/svg"
	 xmlns="http://www.w3.org/2000/svg" xmlns:xlink="http://www.w3.org/1999/xlink" x="0px" y="0px" viewBox="0 0 281 74.1"
	 style="enable-background:new 0 0 281 74.1;" xml:space="preserve">
<style type="text/css">
	.st0{fill:#FFFFFF;}
</style>
<g id="layer1" transform="translate(0,-257.31249)" inkscape:groupmode="layer" inkscape:label="Livello 1">
	<g id="g1640" transform="matrix(0.91447619,0,0,0.91447619,-163.12487,80.589079)">
		<g id="text849-2" transform="matrix(0.62421864,0,0,0.62421864,84.288705,217.35773)">
			<path id="path936" inkscape:connector-curvature="0" class="st0" d="M155.7,38.2c0-12.7,9.3-19,27.8-19c4.3,0,8.7,0.4,13,1.2
				v-4.8c0-5.7-4.1-8.6-12.3-8.6c-6.9,0-14.8,1-23.3,3V-2.8c8.5-2,16.2-3,23.3-3c19,0,28.5,7,28.5,21V58h-9.3l-5.7-5.7
				c-5.6,3.8-11.7,5.7-18.4,5.7C163.6,58.1,155.7,51.5,155.7,38.2L155.7,38.2z M196.6,31.3c-4.1-0.8-8.4-1.2-13-1.2
				c-7.7,0-11.6,2.6-11.6,7.9c0,5.6,3.2,8.5,9.7,8.5c5.4,0,10.3-1.7,14.9-5C196.6,41.5,196.6,31.3,196.6,31.3z"/>
			<path id="path938" inkscape:connector-curvature="0" class="st0" d="M244.1-29v12.8h-16.2V-29H244.1z M244.1-5.9v64h-16.2v-64
				C227.9-5.9,244.1-5.9,244.1-5.9z"/>
			<path id="path940" inkscape:connector-curvature="0" class="st0" d="M259.4,58.1v-64h12.5l1.9,9.3c5.7-6.1,12.6-9.3,20.7-9.3
				s13.6,3,16.5,8.8c6.5-5.8,13.4-8.8,20.5-8.8c14.7,0,22.1,8.1,22.1,24.3v39.7h-16.2V17.9c-0.1-7.1-3.3-10.7-9.6-10.7
				c-4.8,0-9.4,2.2-13.8,6.4v44.5h-16.2v-40c0-7.2-3-10.9-8.9-10.9c-4.7,0-9.1,2.2-13.3,6.4v44.5H259.4z"/>
			<path id="path942" inkscape:connector-curvature="0" class="st0" d="M363.3-5.9h16.2l8.3,44.5l14.8-44.5h13.8l16,44.5l7.2-44.5
				h16.8l-16.7,64h-15.2l-14.9-45.3l-15.3,45.3h-15.4L363.3-5.9z"/>
			<path id="path944" inkscape:connector-curvature="0" class="st0" d="M463.1,38.2c0-12.7,9.3-19,27.8-19c4.3,0,8.7,0.4,13,1.2
				v-4.8c0-5.7-4.1-8.6-12.3-8.6c-6.9,0-14.8,1-23.3,3V-2.8c8.5-2,16.2-3,23.3-3c19,0,28.5,7,28.5,21V58h-9.4l-5.7-5.7
				c-5.6,3.8-11.7,5.7-18.4,5.7C470.9,58.1,463.1,51.5,463.1,38.2L463.1,38.2z M503.9,31.3c-4.1-0.8-8.4-1.2-13-1.2
				c-7.7,0-11.6,2.6-11.6,7.9c0,5.6,3.2,8.5,9.7,8.5c5.4,0,10.3-1.7,14.9-5V31.3L503.9,31.3z"/>
			<path id="path946" inkscape:connector-curvature="0" class="st0" d="M535.3,58.1v-64h12.5l2,8.2c5.6-5.5,11.6-8.2,17.8-8.2v13
				c-6,0-11.4,2.5-16.2,7.5v43.5H535.3z"/>
			<path id="path948" inkscape:connector-curvature="0" class="st0" d="M603.7-5.9c19.4,0,29.1,9.9,29.1,29.7c0,2.6-0.2,5.3-0.5,7.9
				h-42.4c0,9,6.6,13.6,19.8,13.6c6.4,0,12.9-0.6,19.4-1.8v12.8c-5.7,1.2-12.6,1.8-20.7,1.8c-23.2,0-34.7-10.9-34.7-32.7
				C573.7,4.6,583.7-5.9,603.7-5.9L603.7-5.9z M589.9,20.5h27.3V20c0-8.9-4.4-13.3-13.4-13.3C595.2,6.8,590.6,11.4,589.9,20.5z"/>
		</g>
		<g id="text880-6" transform="matrix(0.63762042,0,0,0.61109854,84.288705,217.35773)">
			<path id="path951" inkscape:connector-curvature="0" class="st0" d="M155,70.1c1.7-1.7,3.8-2.5,6.3-2.5c2.4,0,4.5,0.9,6.3,2.5
				c1.8,1.6,2.5,3.8,2.5,6.4c0,2.6-0.9,4.8-2.5,6.4c-1.7,1.7-3.8,2.5-6.3,2.5c-2.4,0-4.5-0.9-6.3-2.5c-1.7-1.7-2.5-3.8-2.5-6.5
				C152.5,74,153.3,71.9,155,70.1z M156.1,76.7c0,1.8,0.5,3.2,1.6,4.3c1,1,2.3,1.6,3.6,1.6c1.4,0,2.6-0.5,3.6-1.5s1.6-2.4,1.6-4.3
				c0-1.9-0.5-3.2-1.6-4.3c-1-1-2.3-1.6-3.6-1.6s-2.6,0.5-3.6,1.6C156.6,73.4,156.1,74.8,156.1,76.7z"/>
			<path id="path953" inkscape:connector-curvature="0" class="st0" d="M177.5,68h4.5l5.1,10.2l1.4,3.5h0.3l-0.7-4.4v-9.2h3.5v17
				h-4.5l-5-10.2l-1.3-3.6h-0.3l0.6,4.6v9.2h-3.6C177.5,85.2,177.5,68,177.5,68z"/>
			<path id="path955" inkscape:connector-curvature="0" class="st0" d="M208.8,68v3.1h-6.4V75h6.3v3.1h-6.3v3.8h6.5v3.2h-10V68
				H208.8z"/>
			<path id="path957" inkscape:connector-curvature="0" class="st0" d="M237.7,70.8l-2.6,1.5c-0.5-1-1.4-1.5-2.4-1.5
				c-0.5,0-1,0.1-1.5,0.4c-0.4,0.3-0.6,0.8-0.7,1.3c0,0.3,0.1,0.8,0.4,1c0.3,0.3,0.6,0.5,1,0.7c0.3,0.1,0.7,0.3,1.1,0.3
				c0.8,0.2,1.4,0.4,2,0.7c0.6,0.3,1.1,0.6,1.7,1s1,1,1.2,1.7c0.3,0.7,0.4,1.5,0.3,2.4c-0.1,1-0.3,2-1,2.8c-0.6,0.8-1.3,1.3-2.2,1.7
				c-0.9,0.3-1.7,0.5-2.7,0.5c-1.1,0-2.3-0.3-3.3-1c-1-0.6-1.9-1.7-2.5-3.1l2.7-1.6c0.3,0.9,0.9,1.5,1.5,1.9s1.2,0.6,1.7,0.6
				c0.7,0,1.2-0.2,1.7-0.5c0.5-0.3,0.7-0.9,0.7-1.5c0.1-0.7-0.2-1.3-0.7-1.7c-0.5-0.4-1.1-0.7-1.9-1c-3.4-0.9-5.1-2.6-5-5.1
				c0-1.6,0.6-2.9,1.7-3.6c1.1-0.9,2.4-1.3,3.9-1.3C235.1,67.7,236.7,68.8,237.7,70.8z"/>
			<path id="path959" inkscape:connector-curvature="0" class="st0" d="M244.2,68.1h11.2v3.2h-3.8v13.8H248V71.3h-3.8V68.1
				L244.2,68.1z"/>
			<path id="path961" inkscape:connector-curvature="0" class="st0" d="M271.5,68v3.1H265V75h6.3v3.1H265v3.8h6.5v3.2h-10V68H271.5z
				"/>
			<path id="path963" inkscape:connector-curvature="0" class="st0" d="M282.1,79.5v5.6h-3.5V68h5.5c1.9,0,3.4,0.6,4.4,1.7
				s1.6,2.5,1.6,4.1s-0.5,2.9-1.6,4c-1,1.1-2.5,1.7-4.4,1.7L282.1,79.5L282.1,79.5z M284.1,76.4c0.8,0,1.4-0.3,1.8-0.8
				s0.7-1.1,0.7-1.7c0-0.7-0.3-1.3-0.7-1.8c-0.4-0.6-1-0.9-1.8-0.9h-2v5.3L284.1,76.4L284.1,76.4z"/>
			<path id="path965" inkscape:connector-curvature="0" class="st0" d="M319.2,85.1l-1.5-4.6h-5.9l-1.5,4.6h-3.7l5.8-17.2h4.6
				l5.9,17.2C322.9,85.1,319.2,85.1,319.2,85.1z M315,70.4h-0.2l-0.5,2.8l-1.3,4.1h3.8l-1.3-4.1L315,70.4z"/>
			<path id="path967" inkscape:connector-curvature="0" class="st0" d="M337.8,85.1v-7h-5.3v7h-3.6V68h3.6v6.9h5.3V68h3.6v17.1
				H337.8z"/>
			<path id="path969" inkscape:connector-curvature="0" class="st0" d="M358.7,68v3.1h-6.5V75h6.3v3.1h-6.3v3.8h6.5v3.2h-10V68
				H358.7z"/>
			<path id="path971" inkscape:connector-curvature="0" class="st0" d="M376,85.1l-1.5-4.6h-5.9l-1.5,4.6h-3.7l5.8-17.2h4.6
				l5.9,17.2C379.7,85.1,376,85.1,376,85.1z M371.7,70.4h-0.2l-0.5,2.8l-1.3,4.1h3.8l-1.3-4.1L371.7,70.4z"/>
			<path id="path973" inkscape:connector-curvature="0" class="st0" d="M391.3,68c1.2,0,2.4,0.2,3.5,0.6c1,0.3,1.9,0.9,2.5,1.6
				c0.7,0.7,1.2,1.4,1.7,2.3s0.8,1.7,0.9,2.7s0.1,1.9,0,2.9c-0.1,1-0.3,1.8-0.9,2.7c-0.5,0.9-1,1.7-1.7,2.3
				c-0.7,0.7-1.5,1.2-2.5,1.6c-1,0.3-2.2,0.6-3.5,0.6h-5.6V68H391.3z M391.3,82c1.1,0,2.1-0.3,2.9-0.8s1.4-1.2,1.7-2
				s0.5-1.7,0.5-2.6s-0.2-1.8-0.5-2.6c-0.3-0.8-1-1.5-1.7-2.1c-0.8-0.5-1.7-0.9-2.9-0.9h-2v10.9C389.3,82,391.3,82,391.3,82z"/>
			<path id="path975" inkscape:connector-curvature="0" class="st0" d="M421.1,70.1c1.7-1.7,3.8-2.5,6.3-2.5c2.4,0,4.5,0.9,6.3,2.5
				s2.5,3.8,2.5,6.4c0,2.6-0.9,4.8-2.5,6.4c-1.7,1.7-3.8,2.5-6.3,2.5c-2.4,0-4.5-0.9-6.3-2.5c-1.7-1.7-2.5-3.8-2.5-6.5
				C418.4,74,419.3,71.9,421.1,70.1z M422,76.7c0,1.8,0.5,3.2,1.6,4.3c1,1,2.3,1.6,3.6,1.6c1.4,0,2.6-0.5,3.6-1.5s1.6-2.4,1.6-4.3
				c0-1.9-0.5-3.2-1.6-4.3c-1-1-2.3-1.6-3.6-1.6c-1.4,0-2.6,0.5-3.6,1.6C422.5,73.4,422,74.8,422,76.7z"/>
			<path id="path977" inkscape:connector-curvature="0" class="st0" d="M453.1,68.1v3.2h-6.5v3.9h6.3v3.2h-6.3v6.7h-3.5v-17
				C443.1,68.1,453.1,68.1,453.1,68.1z"/>
			<path id="path979" inkscape:connector-curvature="0" class="st0" d="M470.7,68.1h11.2v3.2h-3.8v13.8h-3.6V71.3h-3.8L470.7,68.1
				L470.7,68.1z"/>
			<path id="path981" inkscape:connector-curvature="0" class="st0" d="M497.2,85.1v-7h-5.3v7h-3.6V68h3.6v6.9h5.3V68h3.6v17.1
				C500.7,85.1,497.2,85.1,497.2,85.1z"/>
			<path id="path983" inkscape:connector-curvature="0" class="st0" d="M517.9,68v3.1h-6.5V75h6.3v3.1h-6.3v3.8h6.5v3.2h-10V68
				H517.9z"/>
			<path id="path985" inkscape:connector-curvature="0" class="st0" d="M545,67.6c1.5,0,2.8,0.3,3.9,0.8c1.1,0.5,2.2,1.4,3.2,2.7
				l-2.5,1.8c-1.1-1.4-2.7-2.1-4.6-2.1c-1,0-2,0.3-2.9,0.9s-1.4,1.3-1.8,2.2c-0.3,0.9-0.5,1.7-0.5,2.7c0,1.4,0.5,2.7,1.5,3.9
				c1,1.1,2.3,1.7,3.8,1.7c2.7,0,4.3-1.1,4.7-3.4h-6.5v-3h10.1c0.2,3-0.5,5.4-2.1,7.1s-3.6,2.6-6.3,2.6c-1.8,0-3.4-0.4-4.8-1.3
				c-1.4-0.9-2.3-2-3-3.3s-1-2.7-1-4.3c0-1.6,0.3-3,1-4.3c0.6-1.4,1.7-2.4,3-3.3C541.6,68.1,543.2,67.6,545,67.6L545,67.6z"/>
			<path id="path987" inkscape:connector-curvature="0" class="st0" d="M571.3,85.1l-1.5-4.6h-5.9l-1.5,4.6h-3.7l5.8-17.2h4.6
				l5.9,17.2C575,85.1,571.3,85.1,571.3,85.1z M567.1,70.4h-0.2l-0.5,2.8l-1.3,4.1h3.8l-1.3-4.1L567.1,70.4z"/>
			<path id="path989" inkscape:connector-curvature="0" class="st0" d="M588.3,82.5l-3-6.2l-1.5-4.7h-0.2l0.7,4.8v8.7h-3.5V68h4.5
				l4.3,10.2l4.3-10.2h4.5v17.1h-3.5v-8.7l0.7-4.9h-0.2l-1.5,4.7l-3,6.2L588.3,82.5L588.3,82.5z"/>
			<path id="path991" inkscape:connector-curvature="0" class="st0" d="M615.5,68v3.1H609V75h6.3v3.1H609v3.8h6.5v3.2h-10V68H615.5z
				"/>
		</g>
	</g>
</g>
</svg>
